# xmcd CD database file
#
# Track frame offsets:
#	150
#	13423
#	30967
#	52057
#	71989
#	88904
#	101781
#	115507
#	130461
#	148291
#	162902
#	172699
#	194579
#	214840
#	236150
#	254942
#	273789
#	288275
#	302959
#	317202
#	335312
#
# Disc length: 4739 seconds
#
# Revision: 1
# Processed by: cddbd v1.5.2PL0 Copyright (c) Steve Scherf et al.
# Submitted via: CDex 1.70beta2
#
DISCID=4c128115
DTITLE=Enya - Greatest Hits [CD2]
DYEAR=2005
DGENRE=New Age
TTITLE0=The Sun in the Stream
TTITLE1=Song of the Sandman (Lullaby)
TTITLE2=Water Shows the Hidden Heart
TTITLE3=Exile
TTITLE4=Lazy Days
TTITLE5=The River Sings
TTITLE6=Triad: St. Patrick - Cu Chulainn - Oisin
TTITLE7=Long, Long Journey
TTITLE8=One By One
TTITLE9=Amarantine
TTITLE10=Lothlorien
TTITLE11=Hope Has A Place
TTITLE12=Isobella
TTITLE13=Sumerigusa
TTITLE14=Flora's Secret
TTITLE15=After Ventus
TTITLE16=The First Of Autumn
TTITLE17=Pilgrim
TTITLE18=Fairytale
TTITLE19=Angeles
TTITLE20=How Can I Keep From Singing
EXTD=YEAR: 2005
EXTT0=
EXTT1=
EXTT2=
EXTT3=
EXTT4=
EXTT5=
EXTT6=
EXTT7=
EXTT8=
EXTT9=
EXTT10=
EXTT11=
EXTT12=
EXTT13=
EXTT14=
EXTT15=
EXTT16=
EXTT17=
EXTT18=
EXTT19=
EXTT20=
PLAYORDER=
